<svg width="66" height="66" viewBox="0 0 66 66" fill="none" xmlns="http://www.w3.org/2000/svg">
<g filter="url(#filter0_d_1906_6782)">
<circle cx="33" cy="31" r="25" fill="white"/>
</g>
<g clip-path="url(#clip0_1906_6782)">
<path d="M31.955 23.4989C29.9358 22.2227 31.695 19.1195 33.8503 20.3302C26.1731 15.5763 37.7076 22.724 25.0554 14.8832C24.9426 14.8132 24.8069 14.79 24.6772 14.8185C24.5473 14.8518 24.4351 14.9337 24.3638 15.0474L20.8818 20.8276C20.8152 20.9394 20.7951 21.0729 20.8258 21.1994C20.8565 21.3258 20.9355 21.4352 21.0459 21.5041L32.985 29.0451C33.0394 29.0805 33.1003 29.1048 33.1642 29.1165C33.228 29.1282 33.2936 29.127 33.357 29.1131C33.4204 29.0992 33.4805 29.0729 33.5336 29.0356C33.5867 28.9983 33.6319 28.9507 33.6665 28.8958C33.7809 28.7163 35.6524 25.8241 35.6861 25.757L31.955 23.4989Z" fill="#9DCC6B"/>
<path d="M31.955 23.5C29.9362 22.2255 31.6938 19.1208 33.8503 20.3312C26.1712 15.569 35.7517 21.5135 27.1252 16.168C26.6089 17.7724 24.312 18.3448 23.1108 17.1327L20.8823 20.8287C20.8157 20.9405 20.7956 21.074 20.8263 21.2004C20.857 21.3269 20.936 21.4363 21.0464 21.5052L32.985 29.0462C33.0394 29.0815 33.1003 29.1058 33.1641 29.1174C33.228 29.129 33.2935 29.1279 33.3569 29.114C33.4203 29.1001 33.4804 29.0738 33.5335 29.0365C33.5866 28.9992 33.6318 28.9518 33.6665 28.8969L35.6858 25.7583L31.955 23.5Z" fill="#9DCC6B"/>
<path d="M35.9497 25.3553L35.6862 25.7583L31.9554 23.4999C30.7823 22.8423 30.7891 20.9817 31.9554 20.3262L31.9603 20.3312C32.2447 20.1568 32.5718 20.0645 32.9055 20.0645C33.2391 20.0645 33.5662 20.1568 33.8506 20.3312L33.8606 20.3362C34.4142 20.6828 33.8971 21.5232 33.3382 21.1818C32.728 20.7762 31.8959 21.4032 32.0847 22.1021C32.1086 22.215 32.1554 22.3217 32.2221 22.4158C32.2888 22.5099 32.3741 22.5894 32.4727 22.6493L35.7906 24.659C35.8477 24.6935 35.8972 24.7391 35.9362 24.7931C35.9752 24.8471 36.003 24.9084 36.0179 24.9734C36.0327 25.0384 36.0343 25.1057 36.0226 25.1713C36.0109 25.2369 35.9861 25.2995 35.9497 25.3553Z" fill="#84B749"/>
<path d="M43.1676 17.7794L38.6508 15.2424C37.7141 14.7109 36.6307 14.4964 35.5622 14.6309C34.4936 14.7654 33.4971 15.2416 32.7213 15.9886L30.4329 18.2121C30.4832 18.2433 33.9017 20.363 33.8503 20.3312C31.6968 19.1206 29.9348 22.223 31.9551 23.5L36.6459 26.3403C38.9415 27.7161 40.648 26.0307 42.5207 24.898C42.4742 24.7826 42.4506 24.6594 42.451 24.535V19.0628C42.4526 18.807 42.5518 18.5616 42.7285 18.3766C42.9051 18.1917 43.1457 18.0812 43.4011 18.0679C43.3637 17.9451 43.2799 17.8416 43.1676 17.7794Z" fill="#F6CCAF"/>
<path d="M43.4014 18.0681C43.0561 18.0947 42.7972 18.253 42.6453 18.4809L38.6508 16.2373C37.7141 15.7058 36.6307 15.4913 35.5622 15.6258C34.4936 15.7603 33.4971 16.2365 32.7213 16.9835L31.0547 18.6002L30.4329 18.2121L32.7213 15.9886C33.4971 15.2416 34.4936 14.7654 35.5622 14.6309C36.6307 14.4964 37.7141 14.7109 38.6508 15.2424L43.1676 17.7794C43.2801 17.8416 43.3639 17.9452 43.4014 18.0681Z" fill="#F3BD98"/>
<path d="M36.482 43.9348H26.5333C26.4014 43.9348 26.2749 43.8824 26.1816 43.7891C26.0883 43.6958 26.0359 43.5692 26.0359 43.4373V31.9962C26.0363 31.6006 26.1937 31.2212 26.4734 30.9415C26.7532 30.6617 27.1325 30.5043 27.5282 30.5039H39.4667C39.8623 30.5043 40.2416 30.6617 40.5214 30.9415C40.8012 31.2212 40.9585 31.6006 40.959 31.9962V39.9553C40.959 40.0261 40.9438 40.0962 40.9145 40.1607C40.8853 40.2253 40.8425 40.2828 40.7892 40.3295L36.8097 43.8116C36.719 43.891 36.6026 43.9348 36.482 43.9348Z" fill="#FFCC66"/>
<path d="M36.9795 37.9656H35.4871C34.837 37.9628 34.8363 36.9735 35.4871 36.9707H36.9794C37.6295 36.9735 37.6302 37.9629 36.9795 37.9656Z" fill="#FFBA55"/>
<path d="M34.7091 34.8942L33.4976 34.0661L32.286 34.8942C31.9735 35.1233 31.4953 34.8709 31.5081 34.4835V31.0013C31.5081 30.8694 31.5605 30.7429 31.6538 30.6496C31.747 30.5563 31.8736 30.5039 32.0055 30.5039H34.9901C35.122 30.504 35.2483 30.5565 35.3415 30.6498C35.4347 30.7431 35.487 30.8695 35.487 31.0013V34.4834C35.4992 34.8705 35.0225 35.1231 34.7091 34.8942Z" fill="#F8834B"/>
<path d="M36.482 43.9348H26.5333C26.4014 43.9348 26.2749 43.8824 26.1816 43.7891C26.0883 43.6958 26.0359 43.5692 26.0359 43.4373V31.9962C26.0363 31.6006 26.1937 31.2212 26.4734 30.9415C26.7532 30.6617 27.1325 30.5043 27.5282 30.5039H39.4667C39.8623 30.5043 40.2416 30.6617 40.5214 30.9415C40.8012 31.2212 40.9585 31.6006 40.959 31.9962V39.9553C40.959 40.0261 40.9438 40.0962 40.9145 40.1607C40.8853 40.2253 40.8425 40.2828 40.7892 40.3295L36.8097 43.8116C36.719 43.891 36.6026 43.9348 36.482 43.9348Z" fill="#FFCC66"/>
<path d="M36.9795 37.9656H35.4871C34.837 37.9628 34.8363 36.9735 35.4871 36.9707H36.9794C37.6295 36.9735 37.6302 37.9629 36.9795 37.9656Z" fill="#FFBA55"/>
<path d="M34.7091 34.8942L33.4976 34.0661L32.286 34.8942C31.9735 35.1233 31.4953 34.8709 31.5081 34.4835V31.0013C31.5081 30.8694 31.5605 30.7429 31.6538 30.6496C31.747 30.5563 31.8736 30.5039 32.0055 30.5039H34.9901C35.122 30.504 35.2483 30.5565 35.3415 30.6498C35.4347 30.7431 35.487 30.8695 35.487 31.0013V34.4834C35.4992 34.8705 35.0225 35.1231 34.7091 34.8942Z" fill="#F8834B"/>
<path d="M39.4666 30.5039H33.4973V43.9348H36.482C36.6029 43.9344 36.7195 43.8903 36.8103 43.8104L40.7898 40.3282C40.8434 40.282 40.8862 40.2247 40.9154 40.1603C40.9446 40.0958 40.9595 40.0258 40.9589 39.9551V31.9962C40.9578 31.6008 40.8002 31.2219 40.5206 30.9423C40.2409 30.6627 39.862 30.5051 39.4666 30.5039Z" fill="#FFBA55"/>
<path d="M36.9795 37.9656H35.4871C34.837 37.9628 34.8363 36.9735 35.4871 36.9707H36.9794C37.6295 36.9735 37.6302 37.9629 36.9795 37.9656Z" fill="#FFA92C"/>
<path d="M34.9896 30.5039H33.4973V34.0654L34.7111 34.8962C35.0188 35.124 35.4986 34.8691 35.4871 34.4833V31.0013C35.4867 30.8695 35.4341 30.7432 35.3409 30.65C35.2477 30.5568 35.1214 30.5043 34.9896 30.5039Z" fill="#F66824"/>
<path d="M27.1252 16.1672C26.6089 17.7716 24.3121 18.344 23.1108 17.1319L24.3644 15.0476C24.3985 14.9909 24.4436 14.9415 24.497 14.9025C24.5504 14.8634 24.6112 14.8354 24.6756 14.8201C24.74 14.8048 24.8068 14.8025 24.8721 14.8134C24.9374 14.8243 24.9999 14.8481 25.0558 14.8835C25.1169 14.9211 27.061 16.127 27.1252 16.1672Z" fill="#6F9A3D"/>
<path d="M23.7973 21.0871C23.7985 21.7272 23.5505 22.3427 23.1058 22.8032C22.6113 22.4943 21.5463 21.8207 21.0464 21.5049C20.936 21.436 20.857 21.3266 20.8263 21.2002C20.7956 21.0737 20.8157 20.9402 20.8823 20.8284L21.6085 19.6247L22.1358 18.7441C22.6213 18.9146 23.0418 19.2315 23.3394 19.6512C23.637 20.0709 23.797 20.5726 23.7973 21.0871Z" fill="#6F9A3D"/>
<path d="M35.0543 26.7474L34.4922 27.618L33.6666 28.8964C33.632 28.9513 33.5868 28.9988 33.5336 29.0361C33.4805 29.0734 33.4205 29.0998 33.3571 29.1137C33.2936 29.1276 33.2281 29.1287 33.1642 29.117C33.1003 29.1054 33.0394 29.0811 32.985 29.0457C32.4809 28.7271 31.4327 28.0635 30.9355 27.7473C31.423 26.0249 33.8191 25.4446 35.0543 26.7474Z" fill="#6F9A3D"/>
<path d="M29.0203 24.0362C26.3907 23.9529 26.3914 20.1398 29.0203 20.0566C31.6499 20.1402 31.6492 23.953 29.0203 24.0362Z" fill="#6F9A3D"/>
<path d="M42.2722 38.0549C42.0721 37.7526 41.768 37.5345 41.4176 37.4418C41.0672 37.3492 40.6949 37.3886 40.3717 37.5525C39.5278 37.9639 33.3324 40.9864 32.6613 41.3131C32.7221 41.209 32.7721 41.099 32.8106 40.9848C32.8873 40.782 32.9342 40.5692 32.9499 40.353V40.348C33.0383 39.0687 32.0049 37.96 30.7313 37.9653H27.3987L27.2445 37.4974C27.1472 37.1994 26.9582 36.9398 26.7044 36.7558C26.4507 36.5717 26.1453 36.4726 25.8318 36.4727H23.5485C23.4167 36.4731 23.2904 36.5256 23.1972 36.6188C23.104 36.712 23.0514 36.8383 23.051 36.9702V43.8945C23.0518 43.9894 23.0792 44.0822 23.1302 44.1623C23.1812 44.2423 23.2538 44.3064 23.3395 44.3471L28.7715 46.8493C29.9107 47.3595 31.174 47.5264 32.4066 47.3294C33.6391 47.1324 34.7875 46.5802 35.7109 45.7403L42.0383 40.0098C42.3106 39.7696 42.485 39.4375 42.5281 39.077C42.5713 38.7164 42.4802 38.3526 42.2722 38.0549Z" fill="#F6CCAF"/>
<path d="M42.0384 40.0099L35.7111 45.7407C34.7877 46.5806 33.6393 47.1328 32.4067 47.3298C31.1742 47.5268 29.9109 47.3599 28.7717 46.8497L23.3397 44.3474C23.254 44.3067 23.1815 44.2426 23.1305 44.1626C23.0795 44.0825 23.052 43.9897 23.0513 43.8948V42.9001C23.052 42.995 23.0795 43.0878 23.1305 43.1678C23.1815 43.2479 23.254 43.312 23.3397 43.3528L28.7718 45.8549C29.911 46.3651 31.1743 46.5319 32.4069 46.3349C33.6394 46.1378 34.7878 45.5855 35.7111 44.7456L42.0384 39.0151C42.2216 38.8489 42.3616 38.6406 42.4464 38.4082C42.5483 38.6851 42.5639 38.9864 42.491 39.2724C42.4182 39.5583 42.2604 39.8155 42.0384 40.0099Z" fill="#F3BD98"/>
<path d="M22.5511 45.9247H19.569C19.437 45.9247 19.3105 45.8723 19.2172 45.779C19.1239 45.6857 19.0715 45.5592 19.0715 45.4272V35.976C19.0715 35.844 19.1239 35.7175 19.2172 35.6242C19.3105 35.5309 19.437 35.4785 19.569 35.4785H22.551C22.9473 35.479 23.3273 35.6366 23.6075 35.9168C23.8878 36.197 24.0455 36.577 24.046 36.9733V44.4299C24.0455 44.8262 23.8878 45.2061 23.6076 45.4863C23.3274 45.7665 22.9474 45.9242 22.5511 45.9247Z" fill="#425B72"/>
<path d="M24.046 43.6758V44.4269C24.0455 44.8239 23.8876 45.2044 23.6069 45.4851C23.3262 45.7658 22.9456 45.9236 22.5486 45.9241H19.569C19.4372 45.9237 19.3109 45.8711 19.2177 45.7779C19.1245 45.6847 19.0719 45.5584 19.0715 45.4266V43.6758H24.046Z" fill="#374F68"/>
<path d="M33.8555 40.7305C33.8318 41.3026 33.5886 41.8436 33.1763 42.241C32.7641 42.6384 32.2145 42.8617 31.6419 42.8644H29.4333C28.7826 42.8623 28.7814 41.8718 29.4333 41.8696H31.6419C31.8448 41.8689 32.0443 41.8175 32.2224 41.7203C32.4004 41.623 32.5514 41.4828 32.6616 41.3125L33.8555 40.7305Z" fill="#E7A273"/>
<path d="M22.0562 42.3355C22.0533 42.986 21.0641 42.986 21.0613 42.3355C21.064 41.685 22.0534 41.6851 22.0562 42.3355Z" fill="#1F2F42"/>
<path d="M36.9943 21.688C36.9243 21.8 36.8127 21.8797 36.684 21.9095C36.5553 21.9394 36.42 21.917 36.3079 21.8472L36.0293 21.6781C35.1259 21.1192 32.8492 19.7102 31.9751 19.166C32.2618 18.9919 32.5912 18.9006 32.9266 18.9024C33.2621 18.9041 33.5905 18.9988 33.8754 19.1759L36.8302 21.0016C36.9427 21.071 37.0232 21.1823 37.0539 21.3109C37.0847 21.4396 37.0633 21.5752 36.9943 21.688Z" fill="#E7A273"/>
<path d="M46.4308 26.0268H43.4462C43.0506 26.0264 42.6712 25.869 42.3915 25.5892C42.1117 25.3095 41.9543 24.9301 41.9539 24.5345V19.0614C41.9543 18.6661 42.1116 18.2871 42.3911 18.0075C42.6707 17.728 43.0497 17.5708 43.445 17.5703H46.4308C46.5628 17.5703 46.6893 17.6227 46.7826 17.716C46.8759 17.8093 46.9283 17.9358 46.9283 18.0677V25.5293C46.9283 25.5946 46.9154 25.6593 46.8904 25.7197C46.8654 25.78 46.8288 25.8349 46.7826 25.8811C46.7364 25.9273 46.6816 25.9639 46.6212 25.9889C46.5609 26.0139 46.4962 26.0268 46.4308 26.0268Z" fill="#425B72"/>
<path d="M46.9282 18.0677V19.0626H41.9539C41.9536 18.8666 41.992 18.6724 42.0669 18.4912C42.1418 18.31 42.2518 18.1454 42.3904 18.0068C42.529 17.8682 42.6936 17.7583 42.8748 17.6834C43.056 17.6085 43.2502 17.57 43.4462 17.5703H46.4308C46.5626 17.5707 46.6889 17.6233 46.7821 17.7165C46.8753 17.8097 46.9278 17.936 46.9282 18.0677Z" fill="#374F68"/>
<path d="M44.9385 23.5387C44.9356 24.1892 43.9464 24.1892 43.9436 23.5387C43.9464 22.8881 44.9358 22.8882 44.9385 23.5387Z" fill="#1F2F42"/>
<path d="M35.6858 25.757L35.5017 26.0506L22.5984 17.9872L24.3643 15.0474C24.4356 14.9337 24.5477 14.8518 24.6777 14.8185C24.8074 14.79 24.943 14.8132 25.0559 14.8832L33.8508 20.3302C31.6943 19.119 29.9371 22.2238 31.9556 23.4989L35.6858 25.757Z" fill="#84B749"/>
<path d="M27.1252 16.1669C26.6089 17.7713 24.3121 18.3438 23.1108 17.1316C23.4092 16.6309 24.0587 15.5531 24.3644 15.0474C24.4356 14.9337 24.5478 14.8518 24.6778 14.8185C24.8074 14.79 24.9431 14.8132 25.056 14.8832C24.9927 14.8457 26.6423 15.8618 27.1252 16.1669Z" fill="#678C38"/>
<path d="M31.0103 22.0473C31.0266 20.0849 28.3927 19.3255 27.3577 20.9602L30.7226 23.0623C30.9091 22.7564 31.0085 22.4055 31.0103 22.0473Z" fill="#678C38"/>
</g>
<defs>
<filter id="filter0_d_1906_6782" x="0" y="0" width="66" height="66" filterUnits="userSpaceOnUse" color-interpolation-filters="sRGB">
<feFlood flood-opacity="0" result="BackgroundImageFix"/>
<feColorMatrix in="SourceAlpha" type="matrix" values="0 0 0 0 0 0 0 0 0 0 0 0 0 0 0 0 0 0 127 0" result="hardAlpha"/>
<feOffset dy="2"/>
<feGaussianBlur stdDeviation="4"/>
<feColorMatrix type="matrix" values="0 0 0 0 0 0 0 0 0 0 0 0 0 0 0 0 0 0 0.135216 0"/>
<feBlend mode="normal" in2="BackgroundImageFix" result="effect1_dropShadow_1906_6782"/>
<feBlend mode="normal" in="SourceGraphic" in2="effect1_dropShadow_1906_6782" result="shape"/>
</filter>
<clipPath id="clip0_1906_6782">
<rect width="33.3333" height="33.3333" fill="white" transform="translate(16.3333 14.334)"/>
</clipPath>
</defs>
</svg>
