<svg width="70" height="15" viewBox="0 0 70 15" fill="none" xmlns="http://www.w3.org/2000/svg">
<g clip-path="url(#clip0_1911_7220)">
<path d="M1.41916 6.96718C9.03674 6.8018 16.6469 6.34163 24.2275 5.57947C25.9664 5.40331 27.7089 5.24153 29.4181 4.89281C31.0016 4.56925 32.7034 4.05156 34.0205 3.09886C34.5495 2.71778 34.4238 2.05628 33.9983 1.63925C33.5728 1.22222 32.9143 0.974161 32.3187 0.855523C30.5909 0.517584 28.7596 0.431302 26.9986 0.424112C25.2375 0.416922 23.3248 0.546345 21.512 0.819572C19.8138 1.07482 18.0528 1.39119 16.4471 1.99157C15.2966 2.42298 13.9869 3.15638 13.5873 4.36793C13.4985 4.63756 13.4356 4.92876 13.5873 5.17682C13.7723 5.486 14.0572 5.77001 14.3161 6.02167C14.7934 6.49262 15.3447 6.89527 15.9255 7.2404C18.5301 8.79708 21.7635 9.23208 24.7233 9.74259C28.4081 10.3789 32.1152 10.8679 35.8407 11.2166C43.2992 11.914 50.8132 12.0147 58.2902 11.5365C59.2151 11.479 60.1437 11.4071 61.0686 11.3316C61.3461 11.3065 61.8974 11.1375 61.9529 10.8175C62.0121 10.476 61.4941 10.476 61.2795 10.494C54.72 11.0296 48.1273 11.1195 41.553 10.7456C35.0749 10.3753 28.5709 9.61316 22.2223 8.28298C19.5179 7.71496 16.6543 6.83775 14.9858 4.54049L15.0413 4.73822C15.0968 3.69924 15.9033 3.08088 16.8282 2.6998C18.0417 2.19649 19.418 1.95922 20.7128 1.74351C23.7096 1.2402 26.7766 1.13953 29.7992 1.46669C30.5317 1.54578 33.1955 1.67161 32.7774 2.97303L33.0697 2.65666C31.5898 3.64172 29.8658 4.07672 28.1121 4.33557C26.1143 4.63037 24.0906 4.79934 22.0817 4.98628C17.8382 5.38174 13.5873 5.68373 9.32902 5.88505C6.89465 6.0001 4.45658 6.08278 2.0185 6.13671C1.69294 6.1439 1.19718 6.23378 1.0159 6.53936C0.845715 6.82697 1.16389 6.97796 1.42656 6.97437L1.41916 6.96718Z" fill="white"/>
<path d="M53.4914 8.71022C58.5562 9.06613 63.5878 9.82829 68.5231 10.9895L68.2308 10.6839C68.1975 10.9356 68.0828 10.9571 67.8535 11.0291C67.4798 11.1513 67.0987 11.2484 66.7251 11.3598C65.9999 11.5719 65.2785 11.784 64.5571 11.9997C63.0809 12.4347 61.6084 12.8733 60.136 13.3155C59.9251 13.3802 59.4182 13.5636 59.4996 13.862C59.581 14.1604 60.1323 14.0849 60.3321 14.0274C62.1005 13.5204 63.8652 13.0028 65.63 12.4815C66.4883 12.2298 67.3503 11.9889 68.2049 11.7193C68.808 11.5288 69.6515 11.2016 69.7366 10.497C69.7588 10.31 69.6145 10.2309 69.4443 10.1914C64.3869 9.02299 59.2407 8.26083 54.0537 7.90851C53.7504 7.88694 53.262 8.01996 53.0992 8.29319C52.9254 8.58439 53.2472 8.68865 53.4914 8.70662V8.71022Z" fill="white"/>
</g>
<defs>
<clipPath id="clip0_1911_7220">
<rect width="68.7765" height="13.6577" fill="white" transform="translate(0.959961 0.423828)"/>
</clipPath>
</defs>
</svg>
