<svg width="173" height="78" viewBox="0 0 173 78" fill="none" xmlns="http://www.w3.org/2000/svg">
<g clip-path="url(#clip0_1793_5313)">
<path d="M63.4419 7C63.0785 7.30306 62.7152 7.60395 62.3517 7.90265C44.8342 22.2302 23.2498 30.6776 0.660702 32.0464L0.212646 32.0737L12.2044 44.0654L17.6552 29.8934L30.7371 39.7048L35.0978 24.4426L49.2698 34.254L50.36 16.8114L63.4419 23.3524V7Z" fill="#93CAE2"/>
<path d="M0.194092 41.8851C0.583279 42.1271 0.973556 42.368 1.36601 42.6046C19.9476 53.9465 41.7117 58.9432 63.3797 56.8421L63.806 56.7995L54.7206 70.2292L47.0895 57.1473L36.1879 69.1391L30.7371 54.967L17.6552 65.8686L14.3847 49.5162L2.39294 58.2375L0.195182 41.8851" fill="#FBCC34"/>
<path d="M55.8107 45.1556C57.0148 45.1556 57.991 44.1794 57.991 42.9752C57.991 41.7711 57.0148 40.7949 55.8107 40.7949C54.6065 40.7949 53.6304 41.7711 53.6304 42.9752C53.6304 44.1794 54.6065 45.1556 55.8107 45.1556Z" fill="#FBCC34"/>
<path d="M5.66347 68.0489C6.86763 68.0489 7.84379 67.0728 7.84379 65.8686C7.84379 64.6645 6.86763 63.6883 5.66347 63.6883C4.45932 63.6883 3.48315 64.6645 3.48315 65.8686C3.48315 67.0728 4.45932 68.0489 5.66347 68.0489Z" fill="#06AAE9"/>
<path d="M14.3847 16.8114C15.5888 16.8114 16.565 15.8353 16.565 14.6311C16.565 13.427 15.5888 12.4508 14.3847 12.4508C13.1805 12.4508 12.2043 13.427 12.2043 14.6311C12.2043 15.8353 13.1805 16.8114 14.3847 16.8114Z" fill="#ED1C24"/>
<path d="M0.531982 17.5823L2.07374 16.0405L4.25379 18.2206L2.71203 19.7623L0.531982 17.5823Z" fill="#FBCC34"/>
<path d="M43.8188 10.2705H45.9992V13.541H43.8188V10.2705Z" fill="#FF1D25"/>
<path d="M28.8762 9.49963L31.0563 7.31958L32.598 8.86134L30.418 11.0414L28.8762 9.49963Z" fill="#06AAE9"/>
<path d="M19.0652 23.671L21.2452 21.491L22.787 23.0327L20.6069 25.2128L19.0652 23.671Z" fill="#7AC943"/>
<path d="M57.2209 27.3941L58.7627 25.8523L60.9427 28.0323L59.401 29.5741L57.2209 27.3941Z" fill="#7AC943"/>
<path d="M38.3682 36.4343H40.5485V39.7048H38.3682V36.4343Z" fill="#FF1D25"/>
<path d="M44.1392 49.8339L46.3192 47.6538L47.861 49.1956L45.6809 51.3756L44.1392 49.8339Z" fill="#7AC943"/>
<path d="M19.0652 43.7459L20.6069 42.2041L22.787 44.3841L21.2452 45.9259L19.0652 43.7459Z" fill="#06AAE9"/>
<path d="M26.3765 64.7784H28.5568V68.0489H26.3765V64.7784Z" fill="#7AC943"/>
<path d="M9.24805 59.0087L10.7898 57.4669L12.9699 59.647L11.4281 61.1887L9.24805 59.0087Z" fill="#06AAE9"/>
<path d="M10.3391 69.4582L12.5192 67.2782L14.0609 68.82L11.8809 71L10.3391 69.4582Z" fill="#FF1D25"/>
<path d="M44.1389 68.3675L46.319 66.1875L47.8607 67.7293L45.6807 69.9093L44.1389 68.3675Z" fill="#06AAE9"/>
</g>
<g clip-path="url(#clip1_1793_5313)">
<path d="M113.994 37.6952L113.47 39.1181L79.7907 58.8219L77.0442 59.0179L78.265 57.4715L112.773 37.6952H113.994Z" fill="#424242"/>
<path d="M142.184 54.7252C142.175 54.2848 141.954 53.8481 141.518 53.5965L113.976 37.6952L77.0442 59.0179C77.0442 60.6994 77.9412 62.2531 79.3974 63.0938L104.026 77.3131C105.613 78.2291 107.567 78.229 109.154 77.3131L139.475 59.8063C141.153 58.8378 142.186 57.0482 142.186 55.1114V54.7243L142.184 54.7252Z" fill="#E8EDEF"/>
<path d="M141.518 55.9101L109.154 74.5958C107.567 75.5117 105.612 75.5117 104.026 74.5958L77.0442 59.0178C77.0442 60.6993 77.9412 62.253 79.3974 63.0937L104.026 77.313C105.613 78.2291 107.567 78.2289 109.154 77.313L139.475 59.8062C141.153 58.8377 142.186 57.0481 142.186 55.1113V54.7534C142.186 55.2032 141.963 55.6531 141.518 55.9101Z" fill="#C8CED6"/>
<path d="M142.184 54.7251C142.184 54.7345 142.186 54.7439 142.186 54.7533V54.7241L142.184 54.7251Z" fill="#D1D1D1"/>
<path d="M84.3611 54.7134L87.6987 56.6634L109.886 43.8442L106.574 41.948L84.3611 54.7134Z" fill="#212938"/>
<path d="M89.8243 57.8687L85.2178 60.5416V60.7886L86.9756 61.806L91.5993 59.1534V58.8876L89.8243 57.8687Z" fill="#284363"/>
<path d="M86.9865 61.561L85.2178 60.5416V60.7887L86.9756 61.806L91.5993 59.1534V58.8876L86.9865 61.561Z" fill="#212938"/>
<path d="M92.158 59.1998L87.5515 61.8728V62.1198L89.9886 63.5371L94.6123 60.8845V60.6187L92.158 59.1998Z" fill="#284363"/>
<path d="M89.9996 63.292L87.5515 61.8728V62.1198L89.9886 63.537L94.6123 60.8844V60.6187L89.9996 63.292Z" fill="#212938"/>
<path d="M97.3378 56.2239L92.7312 58.8968V59.1438L95.1684 60.561L99.7921 57.9084V57.6427L97.3378 56.2239Z" fill="#284363"/>
<path d="M95.1794 60.316L92.7312 58.8967V59.1437L95.1684 60.561L99.7921 57.9084V57.6426L95.1794 60.316Z" fill="#212938"/>
<path d="M102.15 56.922L97.5439 59.595V59.8418L99.981 61.2592L104.605 58.6065V58.3407L102.15 56.922Z" fill="#284363"/>
<path d="M99.992 61.0141L97.5439 59.5949V59.8418L99.981 61.2592L104.605 58.6065V58.3407L99.992 61.0141Z" fill="#212938"/>
<path d="M105.81 58.2699L101.204 60.9429V61.1899L103.641 62.6071L108.264 59.9544V59.6888L105.81 58.2699Z" fill="#284363"/>
<path d="M103.652 62.3622L101.204 60.9429V61.1899L103.641 62.6072L108.264 59.9544V59.6888L103.652 62.3622Z" fill="#212938"/>
<path d="M110.962 55.3028L106.355 57.9758V58.2228L108.792 59.64L113.416 56.9873V56.7217L110.962 55.3028Z" fill="#284363"/>
<path d="M108.803 59.3951L106.355 57.9758V58.2228L108.792 59.6401L113.416 56.9873V56.7217L108.803 59.3951Z" fill="#212938"/>
<path d="M116.221 52.2882L111.615 54.9612V55.2082L114.052 56.6254L118.675 53.9727V53.7071L116.221 52.2882Z" fill="#284363"/>
<path d="M114.063 56.3804L111.615 54.9611V55.2081L114.052 56.6254L118.675 53.9727V53.707L114.063 56.3804Z" fill="#212938"/>
<path d="M107.327 53.9328L102.721 56.6056V56.8526L105.158 58.2699L109.782 55.6173V55.3515L107.327 53.9328Z" fill="#284363"/>
<path d="M105.169 58.0249L102.721 56.6056V56.8526L105.158 58.2699L109.782 55.6173V55.3515L105.169 58.0249Z" fill="#212938"/>
<path d="M112.541 50.9042L107.934 53.5771V53.8241L110.371 55.2414L114.995 52.5887V52.323L112.541 50.9042Z" fill="#284363"/>
<path d="M110.382 54.9964L107.934 53.5771V53.8241L110.371 55.2414L114.995 52.5886V52.323L110.382 54.9964Z" fill="#212938"/>
<path d="M117.764 47.944L113.157 50.617V50.8639L115.595 52.2811L120.218 49.6285V49.3627L117.764 47.944Z" fill="#284363"/>
<path d="M115.606 52.0361L113.157 50.617V50.8638L115.595 52.2811L120.218 49.6285V49.3627L115.606 52.0361Z" fill="#212938"/>
<path d="M102.498 53.2567L97.8916 55.9297V56.1767L100.329 57.594L104.952 54.9412V54.6756L102.498 53.2567Z" fill="#284363"/>
<path d="M100.34 57.3489L97.8916 55.9296V56.1766L100.329 57.5939L104.952 54.9412V54.6755L100.34 57.3489Z" fill="#212938"/>
<path d="M107.691 50.2422L103.085 52.915V53.162L105.522 54.5793L110.146 51.9267V51.6609L107.691 50.2422Z" fill="#284363"/>
<path d="M105.533 54.3343L103.085 52.915V53.162L105.522 54.5793L110.146 51.9267V51.6609L105.533 54.3343Z" fill="#212938"/>
<path d="M112.889 47.2345L108.282 49.9075V50.1545L110.72 51.5717L115.343 48.919V48.6534L112.889 47.2345Z" fill="#284363"/>
<path d="M110.731 51.3268L108.282 49.9075V50.1545L110.72 51.5718L115.343 48.919V48.6534L110.731 51.3268Z" fill="#212938"/>
<path d="M118.076 44.2505L113.47 46.9235V47.1705L115.907 48.5877L120.531 45.935V45.6694L118.076 44.2505Z" fill="#284363"/>
<path d="M115.918 48.3428L113.47 46.9235V47.1705L115.907 48.5877L120.531 45.935V45.6694L115.918 48.3428Z" fill="#212938"/>
<path d="M99.4167 61.328L96.9624 59.9093L90.5471 63.6184V63.8654L92.9842 65.2827L99.4167 61.5967V61.3309V61.328Z" fill="#284363"/>
<path d="M90.5471 63.6184V63.8654L92.9842 65.2827L99.4167 61.5967V61.3309L92.9952 65.0377L90.5471 63.6184Z" fill="#212938"/>
<path d="M103.088 62.7164L100.639 61.3004L93.5781 65.3872V65.6342L96.0154 67.0515L103.093 62.9791V62.7135L103.088 62.7164Z" fill="#284363"/>
<path d="M93.5781 65.3872V65.6342L96.0154 67.0515L103.093 62.9792V62.7193L96.0263 66.8065L93.5781 65.3872Z" fill="#212938"/>
<path d="M103.088 62.7164L103.093 62.7193V62.7135L103.088 62.7164Z" fill="#292929"/>
<path d="M101.192 64.4326L96.5857 67.1055V67.3525L99.0228 68.7698L103.646 66.1171V65.8514L101.192 64.4326Z" fill="#284363"/>
<path d="M99.0338 68.5248L96.5857 67.1055V67.3525L99.0228 68.7698L103.646 66.1171V65.8514L99.0338 68.5248Z" fill="#212938"/>
<path d="M106.374 61.4403L101.767 64.1131V64.3601L104.204 65.7774L108.828 63.1247V62.859L106.374 61.4403Z" fill="#284363"/>
<path d="M104.215 65.5325L101.767 64.1132V64.3602L104.204 65.7774L108.828 63.1247V62.8591L104.215 65.5325Z" fill="#212938"/>
<path d="M121.886 52.4456L106.933 61.1221V61.3691L109.37 62.7863L124.34 54.1301V53.8644L121.886 52.4456Z" fill="#284363"/>
<path d="M109.381 62.5414L106.933 61.1221V61.3691L109.37 62.7864L124.34 54.1301V53.8644L109.381 62.5414Z" fill="#212938"/>
<path d="M127.099 49.4772L122.492 52.15V52.397L124.929 53.8143L129.553 51.1615V50.8959L127.099 49.4772Z" fill="#284363"/>
<path d="M124.94 53.5693L122.492 52.15V52.397L124.929 53.8143L129.553 51.1616V50.8959L124.94 53.5693Z" fill="#212938"/>
<path d="M94.9848 54.8845L90.3782 57.5575V57.8045L92.1361 58.8218L96.7597 56.1691V55.9035L94.9848 54.8845Z" fill="#284363"/>
<path d="M92.1469 58.5769L90.3782 57.5575V57.8045L92.1361 58.8219L96.7597 56.1692V55.9035L92.1469 58.5769Z" fill="#212938"/>
<path d="M100.195 51.88L95.5881 54.553V54.8L97.3459 55.8175L101.97 53.1647V52.8989L100.195 51.88Z" fill="#284363"/>
<path d="M97.3569 55.5724L95.5881 54.553V54.8L97.3459 55.8175L101.97 53.1648V52.899L97.3569 55.5724Z" fill="#212938"/>
<path d="M105.388 48.8754L100.781 51.5483V51.7953L102.539 52.8127L107.163 50.16V49.8943L105.388 48.8754Z" fill="#284363"/>
<path d="M102.55 52.5677L100.781 51.5483V51.7953L102.539 52.8127L107.163 50.1599V49.8943L102.55 52.5677Z" fill="#212938"/>
<path d="M110.54 45.8875L105.934 48.5604V48.8073L107.692 49.8248L112.315 47.172V46.9064L110.54 45.8875Z" fill="#284363"/>
<path d="M107.703 49.5798L105.934 48.5604V48.8073L107.692 49.8248L112.315 47.1721V46.9064L107.703 49.5798Z" fill="#212938"/>
<path d="M115.731 42.9056L111.125 45.5786V45.8255L112.883 46.843L117.506 44.1902V43.9246L115.731 42.9056Z" fill="#284363"/>
<path d="M112.894 46.598L111.125 45.5786V45.8254L112.883 46.8429L117.506 44.1902V43.9246L112.894 46.598Z" fill="#212938"/>
<path d="M126.551 49.1565L121.097 45.9836L118.285 47.633V47.8798L121.036 49.5048L116.755 51.9795L116.759 51.9834V52.2304L119.196 53.6476L126.551 49.4275V49.1618V49.1565Z" fill="#284363"/>
<path d="M109.782 64.3477L123.132 56.6635L129.213 60.1477L115.868 67.872L109.782 64.3477Z" fill="#C8CED6"/>
<path d="M121.26 49.3753L118.285 47.633V47.8799L121.036 49.5048L121.26 49.3753Z" fill="#212938"/>
<path d="M119.221 53.4093L119.208 53.4021L119.207 53.4027L116.759 51.9834V52.2304L119.196 53.6477L126.55 49.4275V49.1619L124.613 50.2804L119.221 53.4093Z" fill="#212938"/>
<path d="M113.281 4.70412L113.282 4.70311L112.637 4.32964C111.879 3.89055 110.944 3.89012 110.185 4.32834L78.407 22.6802C76.8024 23.6066 75.814 25.3186 75.814 27.1714V56.8939C75.814 57.7712 76.2833 58.5813 77.0442 59.0178L113.994 37.6951V5.88451C113.994 5.35075 113.693 4.92265 113.281 4.70412Z" fill="#284363"/>
<path d="M77.0442 27.8585C77.0442 26.0268 78.0214 24.3345 79.6076 23.4187L79.6374 23.4016L111.988 4.72638C112.417 4.47865 112.897 4.5012 113.281 4.70412L113.282 4.70311L112.637 4.32964C111.879 3.89055 110.944 3.89012 110.185 4.32834L78.407 22.6802C76.8024 23.6066 75.814 25.3186 75.814 27.1714V56.8939C75.814 57.7712 76.2833 58.5813 77.0442 59.0178V27.8929V27.8585Z" fill="#212938"/>
<path d="M78.2649 26.3116V56.1704L112.773 36.2634V6.38806L78.2649 26.3116Z" fill="#33AEFF"/>
<g opacity="0.2">
<path d="M93.3359 47.4763L110.351 37.6604L112.773 30.9172V6.38806L106.869 9.79698L93.3359 47.4763Z" fill="white"/>
</g>
<g opacity="0.2">
<path d="M99.6825 13.946L84.7898 22.5444L78.2649 40.7114V56.1704L86.1511 51.621L99.6825 13.946Z" fill="white"/>
</g>
<path d="M118.737 16.8854L112.936 6.14819L78.2649 26.308V33.6467L84.071 37.026V40.4794C84.071 42.542 86.3047 43.8302 88.0901 42.7973C89.9046 41.7474 91.0219 39.81 91.0219 37.7137V32.99L97.9808 28.9496V32.4011C97.9808 34.4637 100.215 35.7521 102 34.7191C103.814 33.6693 104.932 31.7318 104.932 29.6355V24.9138L111.894 20.8714V24.3143C111.894 26.3769 114.128 27.6651 115.913 26.6322C117.727 25.5823 118.742 23.7109 118.742 21.6146V16.8822L118.737 16.8854Z" fill="#F43834"/>
<path d="M97.9776 28.9417L92.0642 18.2697L85.1133 22.3144L91.0334 32.9825V36.4359C91.0334 38.4985 93.2672 39.7869 95.0526 38.7538C96.867 37.7039 97.9844 35.7665 97.9844 33.6702V28.9376L97.9776 28.9417Z" fill="#E3E3E3"/>
<path d="M105.974 10.1915L99.0264 14.2263L104.943 24.9044V28.3578C104.943 30.4204 107.177 31.7086 108.962 30.6758C110.777 29.6259 111.894 27.6885 111.894 25.5922V20.8597L105.974 10.1915Z" fill="#E3E3E3"/>
<path d="M84.071 37.0259V40.4794C84.071 42.542 86.3048 43.8302 88.0902 42.7972C89.9046 41.7473 91.022 39.8099 91.022 37.7136V32.9811L84.071 37.0259Z" fill="#C40041"/>
<path d="M91.0334 32.9826V36.436C91.0334 38.4986 93.2672 39.787 95.0526 38.7539C96.867 37.704 97.9844 35.7666 97.9844 33.6703V28.9377L91.0334 32.9826Z" fill="#C8CED6"/>
<path d="M97.9807 28.9478V32.4012C97.9807 34.4638 100.214 35.7522 102 34.7192C103.814 33.6693 104.932 31.7319 104.932 29.6356V24.9031L97.9807 28.9478Z" fill="#C40041"/>
<path d="M111.894 20.8609V24.3143C111.894 26.3769 114.128 27.6651 115.913 26.6321C117.727 25.5823 118.742 23.7109 118.742 21.6146V16.8822L111.894 20.8609Z" fill="#C40041"/>
<path d="M104.943 24.9044V28.358C104.943 30.4206 107.177 31.7088 108.962 30.6759C110.777 29.626 111.894 27.6886 111.894 25.5923V20.8597L104.943 24.9044Z" fill="#C8CED6"/>
<path d="M84.071 37.026L78.2649 33.6467V26.308L84.071 37.026Z" fill="#C40041"/>
</g>
<g clip-path="url(#clip2_1793_5313)">
<path d="M149.154 43.0001C148.806 43.0001 148.524 42.718 148.524 42.3702V34.4214C148.524 34.0735 148.806 33.7915 149.154 33.7915C149.501 33.7915 149.783 34.0735 149.783 34.4214V42.3702C149.783 42.718 149.501 43.0001 149.154 43.0001Z" fill="#D1EDF9"/>
<path d="M149.543 36.0204H148.764C148.168 36.0204 147.746 35.4377 147.933 34.8719L148.609 32.8225H149.698L150.374 34.8719C150.561 35.4377 150.139 36.0204 149.543 36.0204Z" fill="#F5D400"/>
<path d="M156.613 22.4141C156.613 27.4839 153.273 33.2887 149.154 33.2887C145.034 33.2887 141.695 27.4839 141.695 22.4141C141.695 17.3442 145.034 14.929 149.154 14.929C153.273 14.929 156.613 17.3442 156.613 22.4141Z" fill="#FFF200"/>
<path d="M149.154 14.929C148.576 14.929 148.014 14.9765 147.474 15.0721C150.784 15.6585 153.253 18.0551 153.253 22.4141C153.253 26.7732 150.784 31.6754 147.474 32.9643C148.014 33.1746 148.576 33.2888 149.154 33.2888C153.273 33.2888 156.613 27.484 156.613 22.4141C156.613 17.3442 153.273 14.929 149.154 14.929Z" fill="#F7EB00"/>
<path d="M138.075 43C137.727 43 137.445 42.718 137.445 42.3701C137.445 41.8506 137.262 41.3812 137.068 40.8843C136.736 40.032 136.359 39.066 136.916 37.8047C137.118 37.3455 137.385 36.9733 137.62 36.6448C137.984 36.136 138.274 35.7306 138.292 35.1104C138.29 35.0903 138.289 35.0699 138.289 35.0492C138.289 34.394 137.992 33.979 137.616 33.4536C137.381 33.1252 137.114 32.753 136.912 32.2937C136.355 31.0324 136.732 30.0664 137.064 29.2141C137.258 28.7172 137.441 28.2478 137.441 27.7283V23.9355C137.441 23.5877 137.723 23.3057 138.071 23.3057C138.419 23.3057 138.701 23.5877 138.701 23.9355V27.7284C138.701 28.4847 138.455 29.1154 138.238 29.6718C137.937 30.4444 137.719 31.0027 138.064 31.7853C138.215 32.1257 138.421 32.4147 138.64 32.7206C139.055 33.301 139.525 33.957 139.547 34.9724C139.551 34.9976 139.552 35.0232 139.552 35.0493C139.552 36.1087 139.07 36.7831 138.644 37.3779C138.425 37.6839 138.218 37.9729 138.068 38.3133C137.723 39.0959 137.941 39.6541 138.242 40.4268C138.459 40.9832 138.705 41.6138 138.705 42.3702C138.705 42.718 138.423 43 138.075 43ZM139.548 35.0493H139.549H139.548Z" fill="#D1EDF9"/>
<path d="M138.479 25.0627H137.699C137.103 25.0627 136.682 24.4801 136.868 23.9143L137.544 21.8649H138.634L139.309 23.9143C139.496 24.4801 139.075 25.0627 138.479 25.0627Z" fill="#00A9CE"/>
<path d="M145.548 11.4565C145.548 16.5264 142.208 22.3312 138.089 22.3312C133.969 22.3312 130.63 16.5264 130.63 11.4565C130.63 6.38666 133.969 3.97144 138.089 3.97144C142.208 3.97144 145.548 6.38666 145.548 11.4565Z" fill="#25CDEC"/>
<path d="M138.089 3.97131C137.511 3.97131 136.949 4.01885 136.409 4.11451C139.72 4.70089 142.188 7.09746 142.188 11.4565C142.188 15.8155 139.72 20.7177 136.409 22.0067C136.949 22.2169 137.511 22.3311 138.089 22.3311C142.208 22.3311 145.548 16.5264 145.548 11.4565C145.548 6.38662 142.208 3.97131 138.089 3.97131Z" fill="#0BC5E8"/>
<path d="M164.911 43C164.563 43 164.281 42.718 164.281 42.3701V39.9092C164.281 39.3897 164.098 38.9203 163.905 38.4234C163.572 37.5711 163.196 36.6051 163.752 35.3438C163.955 34.8845 164.221 34.5123 164.456 34.1838C164.832 33.6584 165.129 33.2435 165.129 32.5883C165.129 31.9353 164.825 31.5047 164.439 30.9596C164.172 30.5825 163.87 30.1551 163.669 29.6206C163.256 28.5229 163.543 27.8122 163.821 27.1249C164.047 26.5642 164.281 25.9843 164.281 24.9875V20.2402C164.281 19.8924 164.563 19.6104 164.911 19.6104C165.259 19.6104 165.541 19.8924 165.541 20.2402V24.9875C165.541 26.229 165.235 26.9873 164.989 27.5966C164.736 28.2242 164.608 28.5392 164.848 29.1773C164.992 29.5601 165.223 29.8867 165.468 30.2324C165.899 30.843 166.389 31.535 166.389 32.5884C166.389 33.6478 165.906 34.3221 165.481 34.917C165.262 35.223 165.055 35.512 164.905 35.8523C164.559 36.635 164.777 37.1932 165.078 37.9659C165.295 38.5223 165.541 39.1529 165.541 39.9093V42.3701C165.541 42.718 165.259 43 164.911 43Z" fill="#D1EDF9"/>
<path d="M165.315 21.5602H164.535C163.939 21.5602 163.518 20.9775 163.705 20.4117L164.38 18.3623H165.47L166.146 20.4117C166.332 20.9776 165.911 21.5602 165.315 21.5602Z" fill="#AD6BFF"/>
<path d="M172.37 8.11499C172.37 13.1849 169.031 18.9896 164.911 18.9896C160.792 18.9896 157.452 13.1849 157.452 8.11499C157.452 3.04511 160.792 0.629883 164.911 0.629883C169.031 0.629883 172.37 3.04511 172.37 8.11499Z" fill="#C89CFF"/>
<path d="M164.911 0.629883C164.334 0.629883 163.771 0.677418 163.231 0.773076C166.542 1.35946 169.011 3.75603 169.011 8.11507C169.011 12.4741 166.542 17.3763 163.231 18.6653C163.771 18.8755 164.334 18.9897 164.911 18.9897C169.031 18.9897 172.37 13.185 172.37 8.11507C172.37 3.04511 169.031 0.629883 164.911 0.629883Z" fill="#C18FFF"/>
<path d="M153.135 18.1795C152.54 17.6338 151.785 17.2489 150.892 17.0353C150.553 16.9542 150.214 17.163 150.133 17.5014C150.052 17.8398 150.26 18.1796 150.599 18.2605C151.281 18.4237 151.848 18.7088 152.283 19.108C152.713 19.5022 153.027 20.0292 153.217 20.6745C153.297 20.9491 153.548 21.1272 153.821 21.1272C153.88 21.1272 153.939 21.1189 153.998 21.1016C154.332 21.0035 154.523 20.6536 154.426 20.3197C154.171 19.4513 153.736 18.7311 153.135 18.1795Z" fill="#F5D400"/>
<path d="M142.07 7.22185C141.475 6.67629 140.72 6.29131 139.827 6.07773C139.489 5.99677 139.149 6.20556 139.068 6.54385C138.987 6.88222 139.196 7.22202 139.534 7.30298C140.217 7.46616 140.783 7.75129 141.219 8.15047C141.649 8.54461 141.963 9.07169 142.152 9.71694C142.233 9.99157 142.484 10.1696 142.756 10.1696C142.815 10.1696 142.875 10.1613 142.934 10.1439C143.268 10.0459 143.459 9.69595 143.361 9.36219C143.106 8.49346 142.672 7.77338 142.07 7.22185Z" fill="#00A9CE"/>
<path d="M170.183 6.02084C169.928 5.15227 169.494 4.4321 168.892 3.8805C168.297 3.33493 167.543 2.94995 166.649 2.73638C166.311 2.65558 165.971 2.86412 165.89 3.20249C165.809 3.54086 166.018 3.88066 166.356 3.96162C167.039 4.12481 167.606 4.40993 168.041 4.80903C168.471 5.20333 168.785 5.73034 168.974 6.37559C169.055 6.65022 169.306 6.82826 169.578 6.82826C169.637 6.82826 169.697 6.81995 169.756 6.80265C170.09 6.70464 170.281 6.35468 170.183 6.02084Z" fill="#AD6BFF"/>
<path d="M141.338 1.25977C142.149 1.25977 142.15 0 141.338 0C140.527 0 140.526 1.25977 141.338 1.25977Z" fill="#FDBC00"/>
<path d="M154.933 2.47754C155.744 2.47754 155.745 1.21777 154.933 1.21777C154.122 1.21777 154.121 2.47754 154.933 2.47754Z" fill="#FDBC00"/>
<path d="M152.283 12.0518C153.094 12.0518 153.095 10.792 152.283 10.792C151.473 10.792 151.471 12.0518 152.283 12.0518Z" fill="#FDBC00"/>
<path d="M159.982 25.6926C160.793 25.6926 160.794 24.4329 159.982 24.4329C159.172 24.4329 159.171 25.6926 159.982 25.6926Z" fill="#FDBC00"/>
<path d="M130.608 23.3176C131.419 23.3176 131.42 22.0579 130.608 22.0579C129.798 22.0579 129.797 23.3176 130.608 23.3176Z" fill="#FDBC00"/>
<path d="M130.63 43C131.441 43 131.442 41.7402 130.63 41.7402C129.819 41.7402 129.818 43 130.63 43Z" fill="#FDBC00"/>
<path d="M133.569 29.3525C134.38 29.3525 134.381 28.0928 133.569 28.0928C132.759 28.0928 132.757 29.3525 133.569 29.3525Z" fill="#FDBC00"/>
<path d="M170.724 35.519C171.535 35.519 171.536 34.2593 170.724 34.2593C169.914 34.2593 169.912 35.519 170.724 35.519Z" fill="#FDBC00"/>
<path d="M169.078 29.5205C169.889 29.5205 169.89 28.2607 169.078 28.2607C168.268 28.2607 168.266 29.5205 169.078 29.5205Z" fill="#FDBC00"/>
<path d="M143.018 40.6648C143.828 40.6648 143.83 39.405 143.018 39.405C142.207 39.405 142.206 40.6648 143.018 40.6648Z" fill="#FDBC00"/>
<path d="M132.721 0.184737C132.475 -0.0612534 132.077 -0.0612534 131.831 0.184737L130.185 1.83066C129.939 2.07665 129.939 2.47549 130.185 2.7214C130.308 2.84435 130.469 2.90591 130.63 2.90591C130.791 2.90591 130.953 2.84444 131.075 2.7214L132.721 1.07548C132.967 0.829569 132.967 0.430727 132.721 0.184737Z" fill="#50D9B2"/>
<path d="M149.28 3.84514C149.034 3.59915 148.635 3.59915 148.389 3.84514C148.143 4.09113 148.143 4.48997 148.389 4.73588L150.035 6.3818C150.158 6.50475 150.319 6.56631 150.48 6.56631C150.642 6.56631 150.803 6.50484 150.926 6.3818C151.172 6.13581 151.172 5.73697 150.926 5.49106L149.28 3.84514Z" fill="#FF6381"/>
<path d="M158.768 32.5031L157.122 34.149C156.876 34.395 156.876 34.7939 157.122 35.0398C157.245 35.1627 157.406 35.2243 157.567 35.2243C157.729 35.2243 157.89 35.1628 158.013 35.0398L159.659 33.3938C159.905 33.1478 159.905 32.749 159.659 32.5031C159.413 32.2571 159.014 32.2571 158.768 32.5031Z" fill="#50D9B2"/>
<path d="M132.721 34.4438C132.475 34.1978 132.076 34.1978 131.83 34.4438C131.584 34.6898 131.584 35.0886 131.83 35.3345L133.476 36.9804C133.599 37.1034 133.761 37.1649 133.922 37.1649C134.083 37.1649 134.244 37.1035 134.367 36.9804C134.613 36.7344 134.613 36.3356 134.367 36.0897L132.721 34.4438Z" fill="#50D9B2"/>
<path d="M169.524 40.2788C169.278 40.0328 168.879 40.0328 168.633 40.2788C168.387 40.5248 168.387 40.9236 168.633 41.1695L170.279 42.8155C170.402 42.9384 170.563 43 170.724 43C170.885 43 171.047 42.9385 171.17 42.8155C171.416 42.5695 171.416 42.1706 171.17 41.9247L169.524 40.2788Z" fill="#50D9B2"/>
<path d="M172.815 20.8124C172.569 20.5664 172.171 20.5664 171.925 20.8124L170.279 22.4583C170.033 22.7043 170.033 23.1032 170.279 23.3491C170.402 23.472 170.563 23.5336 170.724 23.5336C170.885 23.5336 171.047 23.4721 171.169 23.3491L172.815 21.7032C173.061 21.4573 173.061 21.0584 172.815 20.8124Z" fill="#FF6381"/>
<path d="M154.555 40.2788C154.309 40.0328 153.91 40.0328 153.664 40.2788C153.418 40.5248 153.418 40.9236 153.664 41.1695L155.31 42.8155C155.433 42.9384 155.595 43 155.756 43C155.917 43 156.078 42.9385 156.201 42.8155C156.447 42.5695 156.447 42.1706 156.201 41.9247L154.555 40.2788Z" fill="#FF6381"/>
</g>
<defs>
<clipPath id="clip0_1793_5313">
<rect width="64" height="64" fill="white" transform="translate(0 7)"/>
</clipPath>
<clipPath id="clip1_1793_5313">
<rect width="74" height="74" fill="white" transform="translate(72 4)"/>
</clipPath>
<clipPath id="clip2_1793_5313">
<rect width="43" height="43" fill="white" transform="translate(130)"/>
</clipPath>
</defs>
</svg>
